<?xml version="1.0" encoding="utf-8"?>
<!-- Generator: Adobe Illustrator 23.0.0, SVG Export Plug-In . SVG Version: 6.00 Build 0)  -->
<svg version="1.1" id="main" xmlns="http://www.w3.org/2000/svg" xmlns:xlink="http://www.w3.org/1999/xlink" x="0px" y="0px"
	 viewBox="0 0 293 293" style="enable-background:new 0 0 293 293;" xml:space="preserve">
<style type="text/css">
	.st0{fill:#33CC99;}
	.st1{fill:#FFFFFF;}
</style>
<title>Asset 1</title>
<path class="st0" d="M146.5,0L146.5,0C227.4,0,293,65.6,293,146.5l0,0c0,80.9-65.6,146.5-146.5,146.5l0,0C65.6,293,0,227.4,0,146.5
	l0,0C0,65.6,65.6,0,146.5,0z"/>
<path class="st1" d="M147,40L147,40c8.8,0,16,7.2,16,16v180c0,8.8-7.2,16-16,16l0,0c-8.8,0-16-7.2-16-16V56
	C131,47.2,138.2,40,147,40z"/>
<path class="st1" d="M237,162H57c-8.8,0-16-7.2-16-16v0c0-8.8,7.2-16,16-16h180c8.8,0,16,7.2,16,16v0C253,154.8,245.8,162,237,162z"
	/>
</svg>
