<svg xmlns="http://www.w3.org/2000/svg" viewBox="0 0 497 385.17"><defs><style>.cls-1{fill:none;stroke:#000;stroke-miterlimit:10;stroke-width:16px;}</style></defs><title>Asset 2</title><g id="Layer_2" data-name="Layer 2"><g id="none"><g id="main"><g id="handed"><path d="M196.5,20C284,20,346.07,21.36,373,22.93V365.17H20V22.93C46.93,21.36,109,20,196.5,20m0-20C98.25,0,0,1.85,0,5.54V371.79a13.38,13.38,0,0,0,13.38,13.38H379.63A13.38,13.38,0,0,0,393,371.79V5.54C393,1.85,294.75,0,196.5,0Z"/></g><path id="cup" class="cls-1" d="M393.86,105.17h87.28c3.89,5,7.86,9,7.86,13.85V264a8.86,8.86,0,0,1-9.19,8.85l-87.29-3.29a8.85,8.85,0,0,1-8.52-8.85V119C384,114.13,388,110.17,393.86,105.17Z"/></g></g></g></svg>