<?xml version="1.0" encoding="utf-8"?>
<!-- Generator: Adobe Illustrator 23.0.0, SVG Export Plug-In . SVG Version: 6.00 Build 0)  -->
<svg version="1.1" id="Layer_1" xmlns="http://www.w3.org/2000/svg" xmlns:xlink="http://www.w3.org/1999/xlink" x="0px" y="0px"
	 viewBox="0 0 800 600" style="enable-background:new 0 0 800 600;" xml:space="preserve">
<style type="text/css">
	.st0{fill:#73E9FF;}
</style>
<title>wave</title>
<g>
	<path class="st0" d="M0,17.8c0,0,45,40.1,100,0s100,0,100,0V600H0V17.8z"/>
	<path class="st0" d="M200,17.8c0,0,45,40.1,100,0s100,0,100,0V600H200V17.8z"/>
	<path class="st0" d="M400,17.8c0,0,45,40.1,100,0s100,0,100,0V600H400V17.8z"/>
	<path class="st0" d="M600,17.8c0,0,45,40.1,100,0s100,0,100,0V600H600V17.8z"/>
</g>
</svg>
